<svg xmlns="http://www.w3.org/2000/svg" version="1.1" xmlns:xlink="http://www.w3.org/1999/xlink" xmlns:svgjs="http://svgjs.dev/svgjs" width="1500" height="1500" viewBox="0 0 1500 1500"><rect width="1500" height="1500" fill="#ffffff"></rect><g transform="matrix(0.6666666666666666,0,0,0.6666666666666666,250,250)"><svg viewBox="0 0 280 280" data-background-color="#ffffff" preserveAspectRatio="xMidYMid meet" height="1500" width="1500" xmlns="http://www.w3.org/2000/svg" xmlns:xlink="http://www.w3.org/1999/xlink"><g id="tight-bounds" transform="matrix(1,0,0,1,0,0)"><svg viewBox="0 0 280 280" height="280" width="280"><g><svg viewBox="0 0 280 280" height="280" width="280"><g><svg viewBox="0 0 280 280" height="280" width="280"><g id="textblocktransform"><svg viewBox="0 0 280 280" height="280" width="280" id="textblock"><g><svg viewBox="0 0 280 280" height="280" width="280"><g transform="matrix(1,0,0,1,74.00336708925556,80.19616080923302)"><svg viewBox="0 0 131.99326582148888 119.60767838153396" height="119.60767838153396" width="131.99326582148888"><g><svg xmlns="http://www.w3.org/2000/svg" xmlns:xlink="http://www.w3.org/1999/xlink" version="1.1" x="0" y="0" viewBox="5.001775370025882 9.222475495742357 89.99964030317257 81.55452450425763" enable-background="new 0 0 100 100" xml:space="preserve" height="119.60767838153396" width="131.99326582148888" class="icon-xg-0" data-fill-palette-color="accent" id="xg-0"><path d="M63.179 34.711c-0.462-0.44-1.158-0.823-1.736-0.951-0.866-0.193-1.727-0.197-2.56-0.2h-0.094c-0.156-0.001-0.312-0.001-0.468-0.003-0.279-0.003-0.558-0.007-0.838-0.007-0.589 0-1.077 0.014-1.531 0.045l-0.38 0.024c-1.119 0.067-2.387 0.143-3.475 0.942-1.357 0.151-2.834 0.152-4.191 0-1.068-0.798-2.348-0.875-3.479-0.942l-0.378-0.024c-0.456-0.032-0.942-0.045-1.532-0.045-0.28 0-0.559 0.003-0.839 0.007-0.155 0.002-0.31 0.002-0.467 0.003h-0.094c-0.833 0.003-1.693 0.006-2.56 0.2-0.577 0.128-1.274 0.511-1.736 0.951-0.994 0.948-0.971 2.438-0.866 3.475 0.132 1.321 0.574 2.575 1.272 3.626 0.978 1.474 2.818 2.231 5.476 2.253h0.07c1.38 0 2.528-0.342 3.411-1.017 0.84-0.643 1.558-1.549 2.134-2.692 0.402-0.799 0.656-1.469 0.801-2.109 0.087-0.389 0.12-0.775 0.102-1.15 0.496-0.193 1.063-0.192 1.559 0-0.02 0.375 0.015 0.76 0.102 1.15 0.145 0.639 0.397 1.31 0.8 2.108 0.575 1.144 1.294 2.05 2.134 2.692 0.883 0.675 2.031 1.017 3.412 1.017h0.07 0.002c2.654-0.021 4.494-0.779 5.472-2.253 0.699-1.052 1.14-2.307 1.272-3.627C64.15 37.148 64.174 35.659 63.179 34.711zM57.483 35.072c0.271 0 0.543 0.003 0.813 0.007 0.193 0.002 0.387 0.003 0.582 0.004 0.784 0.003 1.527 0.004 2.232 0.163 0.304 0.069 0.76 0.322 1.016 0.567 0.512 0.488 0.475 1.5 0.402 2.22-0.109 1.076-0.464 2.091-1.025 2.938-0.683 1.026-2.101 1.555-4.216 1.572h-0.062c-1.053 0-1.866-0.23-2.485-0.704-0.657-0.502-1.229-1.231-1.7-2.168-0.344-0.682-0.558-1.24-0.674-1.757-0.2-0.891 0.023-1.662 0.614-2.115 0.707-0.541 1.709-0.602 2.724-0.663l0.351-0.022C56.476 35.084 56.93 35.072 57.483 35.072zM42.775 42.542h-0.061c-2.118-0.018-3.537-0.546-4.218-1.572-0.562-0.847-0.917-1.863-1.025-2.938-0.072-0.719-0.11-1.732 0.401-2.22 0.258-0.245 0.714-0.499 1.018-0.567 0.705-0.157 1.446-0.16 2.233-0.163 0.194-0.001 0.387-0.001 0.58-0.004 0.272-0.004 0.543-0.007 0.814-0.007 0.554 0 1.008 0.014 1.427 0.042l0.394 0.024c0.971 0.059 1.975 0.119 2.681 0.66 0.59 0.453 0.814 1.224 0.616 2.115-0.117 0.517-0.332 1.075-0.674 1.758-0.472 0.937-1.043 1.666-1.7 2.168C44.64 42.312 43.827 42.542 42.775 42.542z" fill="#471aa0" data-fill-palette-color="accent"></path><path d="M72.683 33.951c-0.379-0.397-0.864-0.647-1.397-0.746 0.95-2.364 1.299-5.403 1.391-6.177 0.304-2.543 0.109-5.162-1.23-7.516-2.667-4.687-8.831-7.838-14.83-9.269-6.282-1.499-13.144-1.642-18.647 1.604-1.617 0.954-3.347 2.534-4.004 4.102-0.057 0.028-0.115 0.058-0.171 0.087-6.815-0.96-7.503 7.373-6.518 11.205 0.512 1.995 1.071 4.006 1.961 5.918-0.733-0.005-1.416 0.268-1.916 0.792-0.586 0.616-0.883 1.516-0.835 2.533 0.117 2.503 1.707 5.662 2.891 7.818 0.111 0.203 0.229 0.448 0.357 0.712 0.622 1.282 1.511 3.112 3.057 3.683 0.298 0.985 0.639 1.885 1.032 2.729 2.505 5.377 9.31 9.281 16.18 9.281 6.869 0 13.674-3.902 16.179-9.28 0.395-0.845 0.734-1.745 1.033-2.73 1.546-0.571 2.434-2.4 3.056-3.682 0.128-0.264 0.245-0.509 0.356-0.711 1.187-2.157 2.777-5.316 2.893-7.816C73.567 35.468 73.27 34.568 72.683 33.951zM67.714 42.705c-0.134 0.245-0.28 0.541-0.434 0.86-0.243 0.503-0.792 1.633-1.163 1.962-0.822-0.104-1.604 0.419-1.813 1.237-0.313 1.228-0.685 2.293-1.135 3.258-1.955 4.196-7.616 7.361-13.168 7.361-5.553 0-11.214-3.165-13.168-7.363-0.45-0.963-0.821-2.027-1.134-3.256-0.191-0.75-0.867-1.25-1.607-1.25-0.069 0-0.137 0.003-0.207 0.012-0.371-0.329-0.918-1.459-1.164-1.963-0.154-0.319-0.299-0.614-0.434-0.86-1.353-2.463-2.16-4.386-2.407-5.731 0.417 0.343 0.918 0.829 1.392 1.409 0.472 0.578 1.273 0.769 1.957 0.467 1.432-0.634 1.021-2.953 0.822-4.143-0.34-2.055-0.666-4.114-0.768-6.198-0.105-2.204-0.076-4.972 1.625-6.628 0.95-0.925 2.438-0.963 3.68-0.772 2.685 0.413 4.728 1.723 7.157 2.584 2.928 1.037 6.107 1.025 9.216 0.548 2.595-0.398 5.827-2.067 8.467-1.356 4.073 1.098 3.57 6.362 3.1 9.551-0.23 1.553-0.496 3.099-0.727 4.651-0.108 0.739 0.287 1.459 0.97 1.762 0.685 0.303 1.483 0.112 1.957-0.465 0.477-0.581 0.978-1.068 1.395-1.41C69.876 38.316 69.068 40.239 67.714 42.705z" fill="#471aa0" data-fill-palette-color="accent"></path><path d="M94.831 86.003c-0.11-2.76-0.225-5.614-0.853-8.428-1.829-8.192-8.91-11.896-15.595-14.439-3.548-1.348-7.066-2.64-10.376-3.836-4.425 4.585-11.119 7.493-18.006 7.493S36.421 63.885 31.995 59.3c-3.311 1.196-6.828 2.488-10.375 3.836-6.685 2.543-13.766 6.247-15.595 14.439-0.628 2.813-0.744 5.668-0.855 8.428-0.043 1.083-0.088 2.205-0.165 3.294-0.026 0.382 0.106 0.759 0.368 1.039 0.262 0.281 0.628 0.441 1.012 0.441h87.232c0.385 0 0.75-0.16 1.012-0.441 0.262-0.28 0.396-0.656 0.369-1.039C94.921 88.208 94.875 87.087 94.831 86.003z" fill="#471aa0" data-fill-palette-color="accent"></path></svg></g></svg></g><g><path d="M19.704 95.57v0l0.393-1.111-2.948-1.046c-2.425-0.86-4.101-1.303-5.026-1.329-0.925-0.026-1.523 0.344-1.794 1.11v0c-0.163 0.46-0.189 0.917-0.078 1.374 0.111 0.456 0.378 0.759 0.799 0.908 0.421 0.149 0.876 0.224 1.364 0.225v0l0.34-0.957c0.609-0.014 1.289 0.112 2.042 0.379 0.753 0.267 1.291 0.817 1.614 1.65 0.323 0.833 0.312 1.734-0.032 2.704v0c-0.779 2.196-2.227 2.918-4.346 2.167v0c-3.14-1.113-3.764-4.338-1.873-9.674v0c1.077-3.038 2.339-4.955 3.785-5.75 1.446-0.795 3.547-0.704 6.305 0.274v0l7.774 2.757c1.328 0.471 2.123 0.336 2.385-0.405v0c0.308-0.868-0.826-1.845-3.401-2.93v0l0.242-0.561c2.21 0.899 3.606 1.868 4.185 2.907 0.58 1.039 0.571 2.401-0.026 4.086v0c-1.086 3.064-2.656 4.49-4.708 4.28v0c0.852 0.676 1.391 1.427 1.615 2.254 0.224 0.827 0.11 1.878-0.342 3.155v0c-1.34 3.779-3.554 5.12-6.644 4.024v0c-1.813-0.643-2.802-1.805-2.967-3.487-0.165-1.682 0.282-4.017 1.342-7.004zM23.871 98.772c1.328 0.471 2.208 0.704 2.64 0.699 0.433-0.005 0.719-0.205 0.86-0.601 0.14-0.396-0.054-0.881-0.583-1.457-0.529-0.576-1.368-1.067-2.516-1.474v0l-3.562-1.263-0.095 0.268c-0.561 1.583 0.32 2.786 2.643 3.61v0z" fill="#471aa0" data-fill-palette-color="primary"></path><path d="M14.066 59.774l-0.606-0.408 5.564-8.255 24.663 16.624 1.272-1.887 0.606 0.409-6.745 10.007-0.606-0.409 1.249-1.853-24.057-16.215z" fill="#471aa0" data-fill-palette-color="primary"></path><path d="M51.934 29.505v0l0.394-1.271c-0.435-0.737-0.957-0.835-1.565-0.297v0c-0.872 0.772-0.716 1.827 0.469 3.166v0c0.467 0.527 1.076 1.073 1.829 1.637v0c2.457-0.33 4.399 0.311 5.826 1.924 1.427 1.613 1.978 3.359 1.653 5.239-0.326 1.88-1.442 3.664-3.349 5.351v0c-0.791 0.7-1.684 1.346-2.68 1.938v0c-0.39 1.358-0.459 2.179-0.207 2.463 0.251 0.284 1.026-0.149 2.324-1.298v0l3.103-2.746c4.604-4.075 8.37-4.46 11.297-1.154v0c1.58 1.785 2.137 3.815 1.672 6.089-0.465 2.274-2.168 4.713-5.109 7.316v0c-5.01 4.435-8.476 5.567-10.396 3.397v0c-1.041-1.176-0.979-2.679 0.188-4.508v0l2.553-0.794c0.358 0.732 0.771 1.361 1.237 1.888v0c1.544 1.744 3.614 1.468 6.211-0.83v0c1.582-1.4 2.539-2.772 2.87-4.114 0.331-1.342 0.111-2.45-0.661-3.322-0.772-0.872-1.547-1.226-2.324-1.062-0.778 0.164-1.937 0.928-3.479 2.292v0l-2.951 2.612c-1.643 1.454-3.062 2.222-4.257 2.302-1.195 0.081-2.147-0.28-2.856-1.08-0.709-0.801-1.048-1.695-1.016-2.682 0.031-0.986 0.346-2.45 0.944-4.389v0c-2.945 1.413-5.486 0.913-7.623-1.501v0c-1.347-1.521-1.885-3.233-1.616-5.136 0.269-1.903 1.5-3.823 3.69-5.762v0c1.318-1.167 2.669-1.91 4.051-2.229v0c-0.606-0.44-1.107-0.883-1.502-1.329v0c-1.005-1.136-1.428-2.227-1.269-3.272 0.16-1.046 0.615-1.901 1.365-2.565 0.75-0.664 1.529-1.001 2.336-1.009 0.806-0.008 1.515 0.332 2.125 1.021 0.61 0.69 0.881 1.363 0.812 2.022-0.069 0.658-0.362 1.216-0.879 1.673-0.517 0.458-1.064 0.698-1.641 0.721-0.577 0.022-1.1-0.211-1.569-0.701zM50.519 40.904v0l1.455 1.643c1.203 1.359 2.136 2.179 2.8 2.459 0.664 0.28 1.235 0.21 1.711-0.212 0.477-0.422 0.611-0.965 0.402-1.631-0.209-0.665-0.969-1.738-2.279-3.219v0l-1.32-1.49c-1.4-1.582-2.422-2.532-3.065-2.85-0.643-0.317-1.202-0.265-1.679 0.157-0.477 0.422-0.608 0.999-0.393 1.732 0.214 0.733 1.004 1.87 2.368 3.411z" fill="#471aa0" data-fill-palette-color="primary"></path><path d="M87.062 23.3v0l-1.532-3.095c-1.166-2.355-2.143-4.009-2.933-4.963-0.79-0.954-1.646-1.203-2.568-0.746v0c-0.534 0.264-0.89 0.629-1.067 1.095-0.178 0.466-0.165 1.087 0.038 1.862v0c0.322 1.201 1.036 2.918 2.141 5.151v0l1.406 2.841c1.31 2.646 2.176 4.197 2.598 4.653 0.422 0.456 0.802 0.812 1.141 1.068v0c0.555 0.45 1.222 0.483 1.998 0.098v0c0.947-0.469 1.295-1.321 1.046-2.558v0c-0.166-0.885-0.922-2.687-2.268-5.406zM88.536 31.956c-3.035 1.502-5.713 1.861-8.036 1.076-2.323-0.785-4.202-2.627-5.638-5.528-1.436-2.901-1.71-5.546-0.822-7.935 0.888-2.389 2.837-4.329 5.847-5.819 3.01-1.49 5.613-1.879 7.809-1.168 2.196 0.711 4.027 2.548 5.493 5.51v0c3.064 6.191 1.513 10.812-4.653 13.864z" fill="#471aa0" data-fill-palette-color="primary"></path><path d="M120.644 21.635c-3.439 0.617-6.178 0.193-8.216-1.271-2.038-1.464-3.34-3.776-3.907-6.936-0.567-3.159-0.034-5.752 1.597-7.779 1.632-2.027 3.941-3.308 6.927-3.843v0c6.052-1.086 9.504 1.432 10.354 7.554v0l-11.278 2.024 0.28 1.559c0.469 2.613 1.156 4.526 2.062 5.74 0.906 1.214 2.185 1.672 3.838 1.375v0c3.093-0.555 4.823-2.572 5.189-6.049v0l0.742-0.01c-0.162 2.011-0.807 3.667-1.936 4.971-1.128 1.303-3.012 2.192-5.652 2.665zM115.666 8.617l0.352 1.96 4.119-0.739-0.352-1.96c-0.387-2.16-0.778-3.61-1.172-4.351-0.394-0.741-0.972-1.043-1.732-0.907-0.76 0.136-1.244 0.657-1.453 1.561-0.209 0.904-0.13 2.383 0.238 4.436z" fill="#471aa0" data-fill-palette-color="primary"></path><path d="M153.59 1.905l3.282 7.019 5.483-6.065-2.908-0.317 0.079-0.727 6.019 0.655-0.079 0.727-2.101-0.228-6.06 6.861 5.459 11.057 2.1 0.229-0.079 0.727-13.491-1.468 0.079-0.728 2.868 0.313-3.652-7.755-5.396 6.77 2.666 0.29-0.079 0.727-6.342-0.69 0.079-0.727 2.666 0.29 6.009-7.52-5.085-10.363-2.343-0.255 0.08-0.727 13.653 1.486-0.08 0.727z" fill="#471aa0" data-fill-palette-color="primary"></path><path d="M194.442 20.854c1.102-2.563 1.719-4.34 1.85-5.33 0.131-0.99-0.164-1.641-0.886-1.951-0.722-0.31-1.569-0.122-2.543 0.565-0.974 0.687-1.798 1.814-2.472 3.382v0l-2.937 6.831c-0.46 1.07-0.639 2.069-0.538 2.998 0.102 0.928 0.564 1.569 1.385 1.922 0.821 0.353 1.617 0.046 2.386-0.92 0.769-0.967 1.743-2.818 2.92-5.556v0zM184.215 7.301l8.847 3.804-1.269 2.949c1.923-1.797 4.116-2.166 6.58-1.107v0c2.14 0.92 3.469 2.406 3.988 4.457 0.519 2.051 0.104 4.644-1.245 7.78-1.348 3.135-2.984 5.174-4.908 6.116-1.924 0.942-4.167 0.862-6.73-0.24v0c-1.194-0.514-2.026-1.048-2.495-1.604-0.469-0.555-0.756-1.224-0.862-2.007v0l-4.157 9.668 4.815 2.07-0.289 0.672-13.811-5.939 0.289-0.672 2.053 0.883 10.884-25.308-1.979-0.85z" fill="#471aa0" data-fill-palette-color="primary"></path><path d="M216.298 48.155c-2.686-2.235-4.125-4.603-4.316-7.106-0.191-2.502 0.74-4.987 2.793-7.454 2.053-2.468 4.38-3.729 6.981-3.786 2.601-0.056 5.068 0.886 7.4 2.827v0c4.727 3.933 5.022 8.195 0.885 12.787v0l-8.809-7.328-1.013 1.218c-1.698 2.041-2.719 3.798-3.065 5.272-0.346 1.474 0.127 2.748 1.418 3.823v0c2.416 2.01 5.072 2.035 7.97 0.077v0l0.485 0.561c-1.643 1.17-3.326 1.743-5.051 1.718-1.724-0.025-3.616-0.894-5.677-2.609zM223.057 35.965l-1.274 1.531 3.218 2.676 1.273-1.53c1.403-1.687 2.261-2.92 2.575-3.699 0.313-0.779 0.173-1.415-0.421-1.909-0.593-0.494-1.304-0.53-2.13-0.107-0.827 0.422-1.907 1.435-3.241 3.038z" fill="#471aa0" data-fill-palette-color="primary"></path><path d="M254.924 64.468v0c-0.564-0.829-1.597-1.191-3.098-1.086-1.502 0.104-2.991 0.66-4.47 1.665v0l-9.002 6.127 1.623 2.385-0.605 0.411-7.132-10.48 0.604-0.412 1.258 1.848 14.78-10.059-1.258-1.847 0.605-0.412 5.509 8.096-3.224 2.194c1.34-0.486 2.6-0.524 3.78-0.115 1.18 0.409 2.128 1.14 2.844 2.193 0.716 1.053 1.002 2.111 0.858 3.176-0.144 1.064-0.759 1.966-1.845 2.705-1.086 0.739-2.088 1.06-3.005 0.964-0.918-0.096-1.723-0.654-2.417-1.673-0.693-1.019-0.868-1.998-0.524-2.936 0.344-0.939 1.232-1.633 2.663-2.082v0l0.823 1.209c1.523-0.217 1.934-0.841 1.233-1.871z" fill="#471aa0" data-fill-palette-color="primary"></path><path d="M254.946 91.06v0l12.064-4.277-0.747-2.107 0.689-0.244 0.747 2.106 4.94-1.751 4.287 6.498-6.701 2.376 1.765 4.979-0.69 0.244-1.765-4.978-12.906 4.576c-1.2 0.425-2.038 0.859-2.513 1.301-0.476 0.442-0.578 1.046-0.306 1.811 0.272 0.766 0.892 1.3 1.862 1.603 0.97 0.303 2.15 0.308 3.54 0.016v0l0.155 0.679c-1.834 0.42-3.431 0.354-4.791-0.199-1.36-0.552-2.416-1.888-3.167-4.007-0.751-2.119-0.905-3.89-0.461-5.311 0.444-1.422 1.777-2.527 3.998-3.315z" fill="#471aa0" data-fill-palette-color="primary"></path><path d="M19.767 181.942v0l0.431 1.194 3.153-1.139c2.592-0.937 4.282-1.709 5.07-2.318 0.782-0.606 1.024-1.321 0.728-2.142v0c-0.177-0.49-0.468-0.886-0.872-1.186-0.404-0.301-0.829-0.37-1.274-0.21-0.452 0.163-0.882 0.409-1.29 0.736v0l0.373 1.032c-0.495 0.424-1.144 0.78-1.946 1.071-0.809 0.292-1.629 0.204-2.462-0.267-0.832-0.47-1.436-1.224-1.811-2.261v0c-0.849-2.35-0.14-3.935 2.128-4.755v0c3.356-1.213 6.066 1.034 8.127 6.741v0c1.174 3.248 1.431 5.693 0.772 7.336-0.653 1.64-2.454 2.993-5.403 4.058v0l-8.312 3.004c-1.42 0.513-1.988 1.165-1.702 1.954v0c0.336 0.93 1.938 0.97 4.807 0.121v0l0.183 0.625c-2.44 0.759-4.253 0.903-5.439 0.432-1.19-0.463-2.11-1.596-2.762-3.398v0c-1.183-3.274-0.853-5.52 0.988-6.741v0c-1.167 0.018-2.123-0.237-2.869-0.767-0.748-0.536-1.368-1.486-1.861-2.848v0c-1.459-4.038-0.536-6.654 2.77-7.849v0c1.936-0.7 3.546-0.41 4.829 0.869 1.277 1.281 2.491 3.517 3.644 6.708zM14.142 182.128c-1.42 0.513-2.307 0.92-2.659 1.22-0.355 0.294-0.455 0.654-0.301 1.081 0.152 0.42 0.642 0.69 1.47 0.808 0.828 0.119 1.856-0.044 3.085-0.488v0l3.812-1.378-0.104-0.286c-0.612-1.694-2.16-2.092-4.644-1.195v0z" fill="#471aa0" data-fill-palette-color="secondary"></path><path d="M48.5 193.689l0.648-0.439 5.989 8.826-26.367 17.894 1.37 2.017-0.648 0.44-7.261-10.7 0.647-0.439 1.346 1.983 25.72-17.455z" fill="#471aa0" data-fill-palette-color="secondary"></path><path d="M68.497 229.229v0l1.405 0.252c0.729-0.558 0.768-1.124 0.118-1.699v0c-0.938-0.83-2.042-0.527-3.312 0.909v0c-0.502 0.568-1.003 1.287-1.501 2.157v0c0.671 2.573 0.242 4.725-1.288 6.455-1.525 1.725-3.311 2.537-5.356 2.437-2.04-0.096-4.082-1.047-6.126-2.855v0c-0.847-0.749-1.649-1.616-2.405-2.602v0c-1.497-0.239-2.38-0.207-2.649 0.098-0.269 0.304 0.291 1.071 1.681 2.301v0l3.325 2.94c4.936 4.365 5.836 8.321 2.7 11.867v0c-1.691 1.912-3.776 2.772-6.254 2.578-2.478-0.203-5.293-1.698-8.443-4.483v0c-5.372-4.751-7.031-8.288-4.976-10.612v0c1.117-1.263 2.724-1.393 4.819-0.389v0l1.175 2.612c-0.729 0.476-1.342 0.996-1.84 1.56v0c-1.655 1.872-1.091 4.039 1.694 6.502v0c1.694 1.498 3.276 2.337 4.746 2.515 1.474 0.173 2.624-0.206 3.449-1.139 0.825-0.933 1.101-1.802 0.826-2.606-0.28-0.808-1.244-1.941-2.893-3.399v0l-3.165-2.799c-1.76-1.557-2.761-2.966-3.001-4.228-0.24-1.261 0.018-2.321 0.776-3.178 0.758-0.857 1.664-1.335 2.719-1.433 1.054-0.098 2.651 0.044 4.79 0.426v0c-1.889-2.945-1.689-5.711 0.599-8.298v0c1.445-1.633 3.197-2.429 5.258-2.388 2.056 0.037 4.258 1.094 6.607 3.171v0c1.41 1.247 2.377 2.586 2.902 4.018v0c0.384-0.7 0.789-1.291 1.215-1.773v0c1.077-1.217 2.18-1.81 3.309-1.779 1.134 0.036 2.105 0.411 2.912 1.124 0.801 0.709 1.26 1.494 1.375 2.355 0.115 0.852-0.156 1.648-0.811 2.388-0.655 0.741-1.335 1.116-2.04 1.126-0.709 0.015-1.343-0.225-1.9-0.718-0.553-0.489-0.879-1.04-0.98-1.653-0.095-0.608 0.085-1.195 0.54-1.76zM56.191 229.221v0l-1.554 1.758c-1.288 1.456-2.038 2.555-2.252 3.297-0.214 0.742-0.064 1.34 0.448 1.793 0.512 0.453 1.109 0.524 1.791 0.214 0.681-0.31 1.722-1.257 3.121-2.84v0l1.414-1.598c1.503-1.699 2.381-2.912 2.633-3.637 0.253-0.726 0.123-1.315-0.389-1.768-0.507-0.449-1.14-0.511-1.897-0.186-0.748 0.324-1.853 1.313-3.315 2.967z" fill="#471aa0" data-fill-palette-color="secondary"></path><path d="M85.586 256.528v0l1.649-3.32c1.251-2.517 2.027-4.422 2.33-5.716 0.303-1.294-0.04-2.187-1.028-2.678v0c-0.57-0.283-1.112-0.349-1.627-0.196-0.511 0.147-1.031 0.561-1.56 1.244v0c-0.818 1.053-1.821 2.774-3.008 5.164v0l-1.51 3.038c-1.407 2.832-2.169 4.578-2.285 5.239-0.113 0.654-0.17 1.209-0.169 1.663v0c-0.025 0.766 0.377 1.356 1.208 1.769v0c1.013 0.503 1.968 0.248 2.865-0.766v0c0.643-0.716 1.688-2.53 3.135-5.441zM79.156 263.395c-3.245-1.612-5.288-3.663-6.13-6.154-0.833-2.493-0.478-5.293 1.065-8.398 1.543-3.105 3.622-5.052 6.237-5.839 2.612-0.797 5.531-0.394 8.757 1.209 3.22 1.6 5.241 3.568 6.061 5.904 0.814 2.333 0.434 5.085-1.143 8.257v0c-3.294 6.629-8.243 8.302-14.847 5.021z" fill="#471aa0" data-fill-palette-color="secondary"></path><path d="M116.762 275.593c-3.685-0.67-6.274-2.121-7.768-4.354-1.5-2.234-1.943-5.044-1.328-8.429 0.615-3.385 2.122-5.788 4.521-7.211 2.399-1.422 5.198-1.843 8.396-1.261v0c6.483 1.178 9.003 4.999 7.56 11.46v0l-12.083-2.196-0.303 1.67c-0.509 2.798-0.533 4.979-0.074 6.542 0.454 1.555 1.564 2.494 3.329 2.815v0c3.318 0.603 5.812-0.771 7.481-4.123v0l0.748 0.26c-0.914 1.961-2.184 3.382-3.81 4.263-1.621 0.889-3.844 1.077-6.669 0.564zM116.646 260.663l-0.381 2.099 4.407 0.801 0.382-2.099c0.421-2.319 0.572-3.923 0.451-4.811-0.114-0.888-0.577-1.406-1.39-1.554-0.82-0.149-1.501 0.192-2.045 1.022-0.55 0.829-1.025 2.343-1.424 4.542z" fill="#471aa0" data-fill-palette-color="secondary"></path><path d="M151.187 256.409l5.032 6.606 4.362-7.603-3.121 0.331-0.083-0.778 6.455-0.684 0.082 0.777-2.252 0.239-4.781 8.567 8.226 10.333 2.253-0.239 0.083 0.778-14.455 1.534-0.083-0.778 3.071-0.326-5.595-7.292-4.102 8.321 2.858-0.303 0.083 0.778-6.798 0.721-0.083-0.778 2.859-0.303 4.576-9.24-7.679-9.696-2.515 0.266-0.082-0.777 14.636-1.553 0.083 0.777z" fill="#471aa0" data-fill-palette-color="secondary"></path><path d="M193.378 253.459c-1.173-2.746-2.096-4.535-2.769-5.367-0.675-0.838-1.398-1.093-2.171-0.763-0.772 0.33-1.252 1.128-1.44 2.394-0.182 1.263 0.086 2.736 0.805 4.417v0l3.129 7.324c0.49 1.146 1.133 2.023 1.931 2.632 0.792 0.612 1.63 0.729 2.514 0.351 0.878-0.375 1.228-1.22 1.049-2.536-0.185-1.313-0.905-3.436-2.158-6.368v0zM175.303 251.385l9.49-4.055 1.353 3.166c0.023-2.823 1.358-4.8 4.005-5.931v0c2.292-0.979 4.427-0.912 6.405 0.201 1.972 1.116 3.676 3.356 5.113 6.719 1.437 3.363 1.812 6.137 1.126 8.323-0.692 2.188-2.415 3.871-5.167 5.047v0c-1.277 0.545-2.305 0.793-3.084 0.743-0.777-0.044-1.507-0.313-2.191-0.809v0l4.431 10.369 5.165-2.208 0.308 0.719-14.815 6.331-0.307-0.719 2.204-0.942-11.599-27.145-2.13 0.91z" fill="#471aa0" data-fill-palette-color="secondary"></path><path d="M229.423 244.783c-2.885 2.388-5.663 3.434-8.333 3.139-2.676-0.291-5.11-1.762-7.304-4.412-2.193-2.65-3.062-5.351-2.605-8.102 0.457-2.751 1.937-5.163 4.442-7.236v0c5.076-4.201 9.622-3.669 13.636 1.597v0l-9.461 7.829 1.082 1.307c1.813 2.191 3.466 3.614 4.957 4.27 1.482 0.654 2.915 0.41 4.297-0.734v0c2.598-2.15 3.153-4.943 1.664-8.378v0l0.68-0.405c0.912 1.962 1.181 3.849 0.808 5.66-0.363 1.813-1.651 3.634-3.863 5.465zM217.927 235.258l1.36 1.643 3.451-2.856-1.36-1.644c-1.503-1.816-2.633-2.963-3.391-3.443-0.753-0.485-1.447-0.464-2.084 0.063-0.642 0.531-0.82 1.272-0.534 2.222 0.28 0.955 1.133 2.293 2.558 4.014z" fill="#471aa0" data-fill-palette-color="secondary"></path><path d="M240.214 202.428v0c-0.605 0.882-0.562 2.053 0.129 3.513 0.685 1.455 1.818 2.725 3.399 3.808v0l9.626 6.601 1.747-2.547 0.645 0.442-7.681 11.201-0.645-0.442 1.356-1.977-15.8-10.834-1.356 1.977-0.645-0.442 5.934-8.655 3.443 2.361c-1.007-1.142-1.535-2.383-1.586-3.723-0.05-1.34 0.31-2.571 1.08-3.693 0.77-1.123 1.716-1.82 2.839-2.093 1.114-0.271 2.251-0.008 3.413 0.788 1.162 0.797 1.873 1.67 2.133 2.62 0.266 0.954 0.025 1.975-0.722 3.064-0.747 1.089-1.657 1.644-2.73 1.664-1.071 0.029-2.108-0.584-3.112-1.838v0l0.885-1.291c-0.813-1.436-1.597-1.604-2.352-0.504z" fill="#471aa0" data-fill-palette-color="secondary"></path><path d="M262.017 189.469v0l-12.897-4.66-0.815 2.254-0.736-0.265 0.815-2.255-5.283-1.909 0.869-8.294 7.165 2.589 1.923-5.322 0.735 0.266-1.922 5.322 13.795 4.984c1.287 0.465 2.276 0.675 2.969 0.63 0.693-0.045 1.187-0.475 1.482-1.29 0.297-0.822 0.148-1.685-0.446-2.592-0.598-0.915-1.573-1.724-2.925-2.428v0l0.338-0.666c1.805 0.904 3.081 2.046 3.828 3.424 0.754 1.381 0.721 3.206-0.098 5.473-0.819 2.267-1.897 3.836-3.234 4.707-1.333 0.879-3.187 0.89-5.563 0.032z" fill="#471aa0" data-fill-palette-color="secondary"></path><path d="M0.366 138.384c0-6.429 5.212-11.641 11.641-11.641 6.429 0 11.641 5.212 11.641 11.641 0 6.429-5.212 11.641-11.641 11.641-6.429 0-11.641-5.212-11.641-11.641z" fill="#471aa0" data-fill-palette-color="primary"></path><path d="M256.352 138.384c0-6.429 5.212-11.641 11.641-11.641 6.429 0 11.641 5.212 11.641 11.641 0 6.429-5.212 11.641-11.641 11.641-6.429 0-11.641-5.212-11.641-11.641z" fill="#471aa0" data-fill-palette-color="primary"></path></g></svg></g></svg></g></svg></g></svg></g><defs></defs></svg><rect width="280" height="280" fill="none" stroke="none" visibility="hidden"></rect></g></svg></g></svg>